#N canvas 389 181 575 352 10;
#X obj 23 14 netreceive 3000;
#X obj 23 35 route 0 1 2 3 4 5;
#X obj 23 58 s PLAY;
#X obj 23 178 throw~ OUTL;
#X obj 104 178 throw~ OUTR;
#X obj 36 229 catch~ OUTL;
#X obj 122 229 catch~ OUTR;
#X obj 35 265 dac~, f 13;
#X obj 23 111 r c0;
#X obj 193 178 throw~ OUTL;
#X obj 274 178 throw~ OUTR;
#X obj 192 111 r c1;
#X obj 321 23 r PLAY;
#X obj 321 105 qlist;
#X obj 23 156 readsf~ 2, f 12;
#X obj 193 156 readsf~ 2, f 12;
#X msg 321 49 read qlist/\$1.txt;
#X msg 223 25 qlist;
#X obj 251 56 symbol;
#X msg 192 133 open rec/\$1.wav \, start;
#X msg 23 134 open rec/\$1.wav \, start;
#X obj 112 100 print c0;
#X obj 244 99 print c1;
#X msg 338 79 bang;
#X connect 0 0 1 0;
#X connect 1 0 2 0;
#X connect 5 0 7 0;
#X connect 6 0 7 1;
#X connect 8 0 20 0;
#X connect 8 0 21 0;
#X connect 11 0 19 0;
#X connect 11 0 22 0;
#X connect 12 0 16 0;
#X connect 14 0 3 0;
#X connect 14 1 4 0;
#X connect 15 0 9 0;
#X connect 15 1 10 0;
#X connect 16 0 13 0;
#X connect 17 0 18 0;
#X connect 18 0 16 0;
#X connect 19 0 15 0;
#X connect 20 0 14 0;
#X connect 23 0 13 0;
