#N canvas 461 135 538 365 10;
#X obj 195 145 r~ DACL;
#X obj 255 145 r~ DACR;
#X obj 195 200 dac~;
#X obj 313 198 writesf~ 2;
#X msg 313 144 stop;
#X obj 313 96 route 0;
#X obj 359 120 symbol;
#X msg 359 143 open \$1 \, start;
#X obj 35 11 netreceive 3000;
#X obj 35 55 s KEYDOWN;
#X obj 55 78 s KEYUP;
#X obj 75 103 s STOP;
#X obj 313 72 r REC;
#X obj 95 132 s DSP;
#X obj 112 158 s REC;
#X obj 44 190 notein;
#X obj 173 12 loadbang;
#X msg 173 87 \; pd dsp \$1;
#X msg 173 38 1, f 6;
#X obj 185 63 r DSP;
#X obj 91 290 int;
#X obj 91 314 s KEYDOWN, f 7;
#X obj 26 314 s KEYUP, f 5;
#X obj 26 290 int;
#X obj 63 261 t b;
#X obj 63 237 moses 1;
#X obj 109 263 t b;
#X obj 35 28 route 0 1 2 3 4 5;
#X obj 131 181 s PLAY;
#X obj 314 223 r PLAY;
#X obj 315 338 dac~;
#X obj 314 317 readsf~;
#X msg 314 294 stop;
#X obj 314 246 route 0;
#X obj 360 270 symbol;
#X msg 360 293 open \$1 \, start;
#X floatatom 139 249 5 0 0 0 - - -, f 5;
#X floatatom 139 268 5 0 0 0 - - -, f 5;
#X connect 0 0 2 0;
#X connect 0 0 3 0;
#X connect 1 0 2 1;
#X connect 1 0 3 1;
#X connect 4 0 3 0;
#X connect 5 0 4 0;
#X connect 5 1 6 0;
#X connect 6 0 7 0;
#X connect 7 0 3 0;
#X connect 8 0 27 0;
#X connect 12 0 5 0;
#X connect 15 0 23 1;
#X connect 15 0 36 0;
#X connect 15 1 25 0;
#X connect 16 0 18 0;
#X connect 18 0 17 0;
#X connect 19 0 17 0;
#X connect 20 0 21 0;
#X connect 23 0 22 0;
#X connect 24 0 23 0;
#X connect 25 0 24 0;
#X connect 25 1 26 0;
#X connect 26 0 20 0;
#X connect 27 0 9 0;
#X connect 27 1 10 0;
#X connect 27 2 11 0;
#X connect 27 3 13 0;
#X connect 27 4 14 0;
#X connect 27 5 28 0;
#X connect 29 0 33 0;
#X connect 31 0 30 0;
#X connect 31 1 30 1;
#X connect 32 0 31 0;
#X connect 33 0 32 0;
#X connect 33 1 34 0;
#X connect 34 0 35 0;
#X connect 35 0 31 0;
#X connect 36 0 37 0;
#X connect 37 0 20 1;
