#N canvas 13 116 569 371 10;
#X obj 12 40 route 0 1 2 3 4 5;
#X msg 23 139 open samples/Kicks/Kick1.wav, f 8;
#X obj 23 234 readsf~ 2;
#X msg 38 214 start;
#X obj 23 109 bng 15 250 50 0 empty empty empty 17 7 0 10 -262144 -1
-1;
#X obj 176 235 readsf~ 2;
#X msg 191 214 start;
#X obj 176 110 bng 15 250 50 0 empty empty empty 17 7 0 10 -262144
-1 -1;
#X obj 351 236 readsf~ 2;
#X msg 366 215 start;
#X obj 351 109 bng 15 250 50 0 empty empty empty 17 7 0 10 -262144
-1 -1;
#X obj 99 235 readsf~ 2;
#X msg 114 214 start;
#X obj 99 109 bng 15 250 50 0 empty empty empty 17 7 0 10 -262144 -1
-1;
#X obj 263 235 readsf~ 2;
#X msg 278 214 start;
#X obj 263 109 bng 15 250 50 0 empty empty empty 17 7 0 10 -262144
-1 -1;
#X obj 436 236 readsf~ 2;
#X msg 453 210 start;
#X obj 436 107 bng 15 250 50 0 empty empty empty 17 7 0 10 -262144
-1 -1;
#X msg 99 138 open samples/Kicks/Kick2.wav, f 8;
#X msg 176 141 open samples/Claps/clap1.wav, f 9;
#X msg 263 138 open samples/Percussions/Perc1.wav, f 10;
#X msg 351 140 open samples/Hats/hat3.wav, f 8;
#X msg 436 137 open samples/Bass/Bassline1.wav, f 10;
#N canvas 2 93 497 300 add 0;
#X obj 221 217 outlet~;
#X obj 74 43 inlet~;
#X obj 93 99 +~;
#X obj 127 43 inlet~;
#X obj 147 140 +~;
#X obj 185 45 inlet~;
#X obj 204 101 +~;
#X obj 238 45 inlet~;
#X obj 291 40 inlet~;
#X obj 310 96 +~;
#X obj 344 40 inlet~;
#X obj 364 137 +~;
#X obj 402 42 inlet~;
#X obj 421 98 +~;
#X obj 455 42 inlet~;
#X obj 233 181 +~, f 34;
#X connect 1 0 2 0;
#X connect 2 0 4 0;
#X connect 3 0 2 1;
#X connect 4 0 15 0;
#X connect 5 0 6 0;
#X connect 6 0 4 1;
#X connect 7 0 6 1;
#X connect 8 0 9 0;
#X connect 9 0 11 0;
#X connect 10 0 9 1;
#X connect 11 0 15 1;
#X connect 12 0 13 0;
#X connect 13 0 11 1;
#X connect 14 0 13 1;
#X connect 15 0 0 0;
#X restore 108 312 pd add;
#N canvas 2 93 497 300 add 0;
#X obj 221 217 outlet~;
#X obj 74 43 inlet~;
#X obj 93 99 +~;
#X obj 127 43 inlet~;
#X obj 147 140 +~;
#X obj 185 45 inlet~;
#X obj 204 101 +~;
#X obj 238 45 inlet~;
#X obj 291 40 inlet~;
#X obj 310 96 +~;
#X obj 344 40 inlet~;
#X obj 364 137 +~;
#X obj 402 42 inlet~;
#X obj 421 98 +~;
#X obj 455 42 inlet~;
#X obj 233 181 +~, f 40;
#X connect 1 0 2 0;
#X connect 2 0 4 0;
#X connect 3 0 2 1;
#X connect 4 0 15 0;
#X connect 5 0 6 0;
#X connect 6 0 4 1;
#X connect 7 0 6 1;
#X connect 8 0 9 0;
#X connect 9 0 11 0;
#X connect 10 0 9 1;
#X connect 11 0 15 1;
#X connect 12 0 13 0;
#X connect 13 0 11 1;
#X connect 14 0 13 1;
#X connect 15 0 0 0;
#X restore 363 311 pd add;
#X obj 12 12 r KEYDOWN;
#X obj 107 336 s~ DACL;
#X obj 363 334 s~ DACR;
#X connect 0 0 4 0;
#X connect 0 1 13 0;
#X connect 0 2 7 0;
#X connect 0 3 16 0;
#X connect 0 4 10 0;
#X connect 0 5 19 0;
#X connect 1 0 2 0;
#X connect 1 0 3 0;
#X connect 2 0 25 0;
#X connect 2 1 26 0;
#X connect 3 0 2 0;
#X connect 4 0 1 0;
#X connect 5 0 25 2;
#X connect 5 1 26 2;
#X connect 6 0 5 0;
#X connect 7 0 21 0;
#X connect 8 0 25 4;
#X connect 8 1 26 4;
#X connect 9 0 8 0;
#X connect 10 0 23 0;
#X connect 11 0 25 1;
#X connect 11 1 26 1;
#X connect 12 0 11 0;
#X connect 13 0 20 0;
#X connect 14 0 25 3;
#X connect 14 1 26 3;
#X connect 15 0 14 0;
#X connect 16 0 22 0;
#X connect 17 0 25 5;
#X connect 17 1 26 5;
#X connect 18 0 17 0;
#X connect 19 0 24 0;
#X connect 20 0 11 0;
#X connect 20 0 12 0;
#X connect 21 0 5 0;
#X connect 21 0 6 0;
#X connect 22 0 14 0;
#X connect 22 0 15 0;
#X connect 23 0 8 0;
#X connect 23 0 9 0;
#X connect 24 0 17 0;
#X connect 24 0 18 0;
#X connect 25 0 28 0;
#X connect 26 0 29 0;
#X connect 27 0 0 0;
