#N canvas 42 135 413 432 10;
#X floatatom 281 119 5 0 0 0 - - -, f 5;
#X obj 208 172 mtof, f 6;
#X obj 281 152 ==, f 4;
#X floatatom 306 136 5 0 0 0 - - -, f 5;
#X obj 191 325 *~, f 4;
#X msg 329 206 0 100;
#X obj 329 250 line 0 0;
#X obj 130 167 osc~;
#X obj 24 233 +~, f 8;
#X obj 191 296 +~;
#X obj 130 144 mtof;
#X obj 24 140 mtof;
#X msg 306 228 1 10;
#X obj 130 119 - 12;
#X obj 208 199 phasor~;
#X obj 77 166 osc~;
#X obj 76 198 +~, f 8;
#X obj 77 143 mtof;
#X obj 77 118 - 24;
#X obj 123 265 *~ 0.5;
#X obj 208 94 + 60;
#X obj 24 116 + 4;
#X obj 24 166 osc~;
#X obj 132 354 s~ DACL;
#X obj 191 354 s~ DACR;
#X obj 281 76 r KEYUP;
#X floatatom 227 57 5 0 0 0 - - -, f 5;
#X obj 208 21 r KEYDOWN;
#X floatatom 329 276 5 0 0 0 - - -, f 5;
#X obj 306 39 r KEYDOWN;
#X obj 281 180 route 0;
#X obj 207 233 -~ 0.5;
#X obj 207 267 *~ 2;
#X connect 0 0 2 0;
#X connect 1 0 14 0;
#X connect 2 0 30 0;
#X connect 3 0 2 1;
#X connect 4 0 24 0;
#X connect 4 0 23 0;
#X connect 5 0 6 0;
#X connect 6 0 4 1;
#X connect 6 0 28 0;
#X connect 7 0 16 1;
#X connect 8 0 19 0;
#X connect 9 0 4 0;
#X connect 10 0 7 0;
#X connect 11 0 22 0;
#X connect 12 0 6 0;
#X connect 13 0 10 0;
#X connect 14 0 31 0;
#X connect 15 0 16 0;
#X connect 16 0 8 1;
#X connect 17 0 15 0;
#X connect 18 0 17 0;
#X connect 19 0 9 0;
#X connect 20 0 1 0;
#X connect 20 0 13 0;
#X connect 20 0 21 0;
#X connect 21 0 11 0;
#X connect 22 0 8 0;
#X connect 25 0 0 0;
#X connect 27 0 20 0;
#X connect 27 0 26 0;
#X connect 29 0 3 0;
#X connect 29 0 12 0;
#X connect 30 1 5 0;
#X connect 31 0 32 0;
#X connect 32 0 9 0;
