#N canvas 20 135 429 398 10;
#X floatatom 170 116 5 0 0 0 - - -, f 5;
#X obj 81 171 mtof, f 6;
#X obj 170 149 ==, f 4;
#X floatatom 195 133 5 0 0 0 - - -, f 5;
#X obj 80 322 *~, f 4;
#X msg 218 203 0 100;
#X obj 218 247 line 0 0;
#X msg 195 225 1 10;
#X obj 81 198 phasor~;
#X obj 21 351 s~ DACL;
#X obj 80 351 s~ DACR;
#X obj 170 73 r KEYUP;
#X floatatom 100 102 5 0 0 0 - - -, f 5;
#X obj 81 66 r KEYDOWN;
#X floatatom 218 273 5 0 0 0 - - -, f 5;
#X obj 195 36 r KEYDOWN;
#X obj 170 177 route 0;
#X obj 80 232 -~ 0.5;
#X obj 80 266 *~ 2;
#X obj 81 139 + 48;
#X connect 0 0 2 0;
#X connect 1 0 8 0;
#X connect 2 0 16 0;
#X connect 3 0 2 1;
#X connect 4 0 10 0;
#X connect 4 0 9 0;
#X connect 5 0 6 0;
#X connect 6 0 4 1;
#X connect 6 0 14 0;
#X connect 7 0 6 0;
#X connect 8 0 17 0;
#X connect 11 0 0 0;
#X connect 13 0 12 0;
#X connect 13 0 19 0;
#X connect 15 0 3 0;
#X connect 15 0 7 0;
#X connect 16 1 5 0;
#X connect 17 0 18 0;
#X connect 18 0 4 0;
#X connect 19 0 1 0;
