#N canvas 423 153 392 320 10;
#X floatatom 188 106 5 0 0 0 - - -, f 5;
#X obj 112 109 mtof, f 6;
#X obj 188 139 ==, f 4;
#X obj 188 168 moses 1;
#X floatatom 213 57 5 0 0 0 - - -, f 5;
#X obj 114 252 *~, f 4;
#X msg 234 195 0 100;
#X obj 234 222 line 0 0;
#X obj 68 158 osc~;
#X obj 113 227 +~;
#X obj 68 135 mtof;
#X msg 192 195 1 10;
#X obj 68 110 - 12;
#X obj 17 158 osc~;
#X obj 18 184 +~;
#X obj 17 135 mtof;
#X obj 17 110 - 24;
#X obj 112 158 osc~;
#X floatatom 112 43 5 0 0 0 - - -, f 5;
#X obj 19 211 *~ 0.2;
#X obj 112 73 + 60;
#X obj 112 12 r KEYDOWN;
#X obj 188 77 r KEYUP;
#X obj 65 284 s~ DACL;
#X obj 125 284 s~ DACR;
#X connect 0 0 2 0;
#X connect 1 0 17 0;
#X connect 2 0 3 0;
#X connect 3 1 6 0;
#X connect 4 0 2 1;
#X connect 4 0 11 0;
#X connect 5 0 24 0;
#X connect 5 0 23 0;
#X connect 6 0 7 0;
#X connect 7 0 5 1;
#X connect 8 0 14 1;
#X connect 9 0 5 0;
#X connect 10 0 8 0;
#X connect 11 0 7 0;
#X connect 12 0 10 0;
#X connect 13 0 14 0;
#X connect 14 0 19 0;
#X connect 15 0 13 0;
#X connect 16 0 15 0;
#X connect 17 0 9 0;
#X connect 18 0 4 0;
#X connect 18 0 20 0;
#X connect 19 0 9 1;
#X connect 20 0 1 0;
#X connect 20 0 12 0;
#X connect 20 0 16 0;
#X connect 21 0 18 0;
#X connect 22 0 0 0;
